<svg xmlns="http://www.w3.org/2000/svg" version="1.1" xmlns:xlink="http://www.w3.org/1999/xlink" xmlns:svgjs="http://svgjs.dev/svgjs" width="1440" height="560" preserveAspectRatio="none" viewBox="0 0 1440 560">
    <g mask="url(&quot;#SvgjsMask1136&quot;)" fill="none">
        <rect width="1440" height="560" x="0" y="0" fill="url(&quot;#SvgjsLinearGradient1137&quot;)"></rect>
        <path d="M833.84 228.53 a115.11 115.11 0 1 0 230.22 0 a115.11 115.11 0 1 0 -230.22 0z" fill="rgba(28, 83, 142, 0.4)" class="triangle-float2"></path>
        <path d="M464.156,290.909C489.505,288.933,504.125,265.122,516.922,243.151C529.846,220.962,545.354,195.455,532.802,173.054C520.098,150.382,490.115,147.729,464.156,148.982C440.806,150.109,419.086,159.73,406.103,179.17C391.353,201.257,382.669,229.096,394.914,252.664C407.943,277.741,435.982,293.106,464.156,290.909" fill="rgba(28, 83, 142, 0.4)" class="triangle-float2"></path>
        <path d="M113.831,131.649C143.027,132.173,169.412,114.76,183.756,89.325C197.848,64.337,197.482,33.783,182.983,9.029C168.64,-15.458,142.209,-30.121,113.831,-30.054C85.571,-29.987,59.09,-15.28,45.247,9.357C31.669,33.523,34.566,62.714,48.125,86.89C62.019,111.664,85.432,131.139,113.831,131.649" fill="rgba(28, 83, 142, 0.4)" class="triangle-float2"></path>
        <path d="M217.49 283.41 a179.96 179.96 0 1 0 359.92 0 a179.96 179.96 0 1 0 -359.92 0z" fill="rgba(28, 83, 142, 0.4)" class="triangle-float1"></path>
        <path d="M1157.85 242.13 a139.52 139.52 0 1 0 279.04 0 a139.52 139.52 0 1 0 -279.04 0z" fill="rgba(28, 83, 142, 0.4)" class="triangle-float1"></path>
        <path d="M138.3927461787129 73.47259716210112L20.95324941358733 161.79425472527413 138.30071749894267 214.0407136652023z" fill="rgba(28, 83, 142, 0.4)" class="triangle-float1"></path>
        <path d="M539.6437313043663-84.14349629576321L437.21244177128574-22.596568259125164 498.7593698079238 79.83472127395532 601.1906593410043 18.28779323731729z" fill="rgba(28, 83, 142, 0.4)" class="triangle-float1"></path>
        <path d="M59.34 522.07 a127.52 127.52 0 1 0 255.04 0 a127.52 127.52 0 1 0 -255.04 0z" fill="rgba(28, 83, 142, 0.4)" class="triangle-float1"></path>
        <path d="M691.18 381.24 a115.83 115.83 0 1 0 231.66 0 a115.83 115.83 0 1 0 -231.66 0z" fill="rgba(28, 83, 142, 0.4)" class="triangle-float2"></path>
        <path d="M755.052,656.435C806.792,657.72,848.768,620.461,875.722,576.277C904.096,529.765,923.162,472.462,896.145,425.148C868.97,377.556,809.817,362.894,755.052,364.95C704.233,366.858,655.304,390.322,631.19,435.097C608.139,477.898,620.594,528.109,644.334,570.531C668.783,614.22,705.002,655.192,755.052,656.435" fill="rgba(28, 83, 142, 0.4)" class="triangle-float1"></path>
        <path d="M-62.843340484535965 390.9502940664356L89.3847635098002 390.9502940664356-62.84334048453599 238.72219007209947z" fill="rgba(28, 83, 142, 0.4)" class="triangle-float3"></path>
        <path d="M49.135968578899075 95.4353475242004L133.81578806974167 33.91185740028595 72.29229794582724-50.76796209055665-12.387521545015368 10.755528033357791z" fill="rgba(28, 83, 142, 0.4)" class="triangle-float1"></path>
        <path d="M1057.392003215062 315.17211395054414L1065.8146188108328 478.8700235177106 1187.3288921422554 402.93947829337156z" fill="rgba(28, 83, 142, 0.4)" class="triangle-float3"></path>
        <path d="M1082.69 233.93 a124.69 124.69 0 1 0 249.38 0 a124.69 124.69 0 1 0 -249.38 0z" fill="rgba(28, 83, 142, 0.4)" class="triangle-float2"></path>
        <path d="M311.96 409.06 a175.51 175.51 0 1 0 351.02 0 a175.51 175.51 0 1 0 -351.02 0z" fill="rgba(28, 83, 142, 0.4)" class="triangle-float1"></path>
        <path d="M399.53412344676974 451.7839097837957L347.47298746377237 322.928076538361 218.61715421833767 374.98921252135835 270.678290201335 503.8450457667931z" fill="rgba(28, 83, 142, 0.4)" class="triangle-float1"></path>
        <path d="M268.27 216.58 a186.13 186.13 0 1 0 372.26 0 a186.13 186.13 0 1 0 -372.26 0z" fill="rgba(28, 83, 142, 0.4)" class="triangle-float1"></path>
        <path d="M783.298,560.681C803.878,559.815,823.108,550.139,833.524,532.369C844.06,514.395,844.261,492.231,834.078,474.054C823.659,455.455,804.613,442.321,783.298,442.713C762.566,443.095,746.545,458.218,735.658,475.866C724.036,494.704,714.332,517.631,725.172,536.93C736.158,556.489,760.885,561.624,783.298,560.681" fill="rgba(28, 83, 142, 0.4)" class="triangle-float3"></path>
        <path d="M781.69 345.91 a176.57 176.57 0 1 0 353.14 0 a176.57 176.57 0 1 0 -353.14 0z" fill="rgba(28, 83, 142, 0.4)" class="triangle-float3"></path>
        <path d="M481.6 337.98 a111.64 111.64 0 1 0 223.28 0 a111.64 111.64 0 1 0 -223.28 0z" fill="rgba(28, 83, 142, 0.4)" class="triangle-float3"></path>
    </g>
    <defs>
        <mask id="SvgjsMask1136">
            <rect width="1440" height="560" fill="#ffffff"></rect>
        </mask>
        <linearGradient x1="15.28%" y1="-39.29%" x2="84.72%" y2="139.29%" gradientUnits="userSpaceOnUse" id="SvgjsLinearGradient1137">
            <stop stop-color="#0e2a47" offset="0"></stop>
            <stop stop-color="rgba(0, 65, 149, 1)" offset="1"></stop>
        </linearGradient>
        <style>
            @keyframes float1 {
                    0%{transform: translate(0, 0)}
                    50%{transform: translate(-10px, 0)}
                    100%{transform: translate(0, 0)}
                }

                .triangle-float1 {
                    animation: float1 5s infinite;
                }

                @keyframes float2 {
                    0%{transform: translate(0, 0)}
                    50%{transform: translate(-5px, -5px)}
                    100%{transform: translate(0, 0)}
                }

                .triangle-float2 {
                    animation: float2 4s infinite;
                }

                @keyframes float3 {
                    0%{transform: translate(0, 0)}
                    50%{transform: translate(0, -10px)}
                    100%{transform: translate(0, 0)}
                }

                .triangle-float3 {
                    animation: float3 6s infinite;
                }
        </style>
    </defs>
</svg>